<svg id="ALT_Orange" xmlns="http://www.w3.org/2000/svg" width="1010" height="620" viewBox="0 0 1010 620">
  <rect id="Rectangle_1729" data-name="Rectangle 1729" width="1010" height="620" fill="none"/>
  <path id="Path_329" d="M894,165.1h86.7v-7.9H894V6h-7.8C855,63.9,823.8,99.3,780,124.8c-35.1,21.6-61.4,28.5-119.8,32.4v7.9h58.4V419.5c0,46.2,1.9,67.8,11.7,96.2,20.4,62.9,69.2,99.2,129.5,99.2,52.6,0,98.4-25.5,120.8-70.7,14.6-30.5,21.4-59.9,24.3-108h-9.7c-5.8,83.5-30.2,133.6-65.3,133.6-24.4,0-36-25.5-36-77.6l.1-327.1Z" fill="#fff"/>
  <path id="Path_330" d="M257.3,522.6l-5.8,9.8c-17.5,30.4-32.1,44.2-46.8,44.2-17.5,0-23.4-23.6-23.4-102.1,0-77.6,7.8-101.1,39.9-124.7l13.6-9.8c8.8-5.9,13.6-10.8,22.4-23.6V522.6ZM422.4,6v6.1h7.8c21.4,0,42.9,2.3,48.7,6.1,8.8,4.5,9.7,8.3,9.7,64.5V584.2h0v.8c0,10.7-7,20.8-27.1,20.8-22.4,0-29-10-29-20.8v-.8h0V334c0-80.5-24.4-126.7-81.8-156.1-36-18.7-82.8-28.5-132.5-28.5-104.2,0-198.7,52.1-198.7,110,0,38.3,35.1,65.8,83.8,65.8,50.7,0,87.7-28.5,87.7-66.8s-34.1-64.8-82.8-64.8c-9.7,0-15.6,0-28.2,2.9,28.2-18.7,67.2-31.4,102.3-31.4,54.5,0,78.9,28.5,78.9,91.3,0,59.9-20.5,81.5-99.4,107l-24.3,7.9C42,401.8,5,438.1,5,498c0,65.8,58.4,116.9,131.5,116.9,58.4,0,88.6-18.7,124.7-81.5,19.5,56,56.5,81.5,114,81.5H522.8c60.4-.4,109.1-36.3,129.5-99.2,9.7-28.5,11.7-50.1,11.7-96.2V6Z" fill="#fff"/>
</svg>
